<svg xmlns="http://www.w3.org/2000/svg" xmlns:xlink="http://www.w3.org/1999/xlink" id="Layer_1" width="60" height="60" x="0" y="0" enable-background="new 0 0 60 60" version="1.1" viewBox="0 0 60 60" xml:space="preserve"><path id="rect3894" fill="#00000" d="M30.02,11.932c-1.739,0-3.168,1.429-3.168,3.17v7.27l-5.156-5.157	c-1.233-1.23-3.21-1.231-4.439,0c-1.23,1.233-1.231,3.25,0,4.481l5.2,5.156h-7.354c-1.741,0-3.17,1.43-3.17,3.169	c0,1.741,1.429,3.128,3.17,3.128h7.312l-5.158,5.156c-1.23,1.231-1.231,3.249,0,4.479c1.233,1.23,3.25,1.191,4.48-0.042l5.115-5.156	v7.354c0,1.742,1.43,3.129,3.168,3.129c1.742,0,3.128-1.387,3.128-3.129v-7.395l5.241,5.197c1.233,1.23,3.207,1.233,4.438,0	c1.23-1.231,1.232-3.207,0-4.438l-5.198-5.156h7.311c1.742,0,3.129-1.387,3.129-3.128c0-1.739-1.387-3.169-3.129-3.169h-7.354	l5.198-5.241c1.23-1.233,1.232-3.167,0-4.396c-1.23-1.23-3.207-1.274-4.438-0.042l-5.198,5.241v-7.312	C33.148,13.361,31.762,11.932,30.02,11.932z" opacity=".3"/></svg>